<svg width="28" height="28" viewBox="0 0 28 28" fill="none" xmlns="http://www.w3.org/2000/svg">
<path d="M8.93848 21.8809H19.2744C20.9707 21.8809 21.9551 20.8965 21.9551 19.0156V9.91895C21.9551 8.03809 20.9619 7.05371 19.0635 7.05371H17.8242C17.7803 5.08496 16.1016 3.4502 14.001 3.4502C11.9092 3.4502 10.2217 5.08496 10.1777 7.05371H8.93848C7.04004 7.05371 6.04688 8.03809 6.04688 9.91895V19.0156C6.04688 20.8965 7.04004 21.8809 8.93848 21.8809ZM14.001 5.00586C15.2051 5.00586 16.0928 5.91113 16.1279 7.05371H11.874C11.9092 5.91113 12.7969 5.00586 14.001 5.00586Z" fill="black"/>
</svg>
