<svg width="279" height="287" viewBox="0 0 279 287" fill="none" xmlns="http://www.w3.org/2000/svg">
<g clip-path="url(#clip0_1580_8976)" filter="url(#filter0_d_1580_8976)">
<path d="M120.438 90.4898L118.023 90.3833C118.167 87.0723 119.613 57.8806 125.969 52.5554C126.372 52.1928 126.848 51.9211 127.365 51.7585C127.881 51.5959 128.426 51.5461 128.963 51.6125C132.747 52.1424 136.879 58.1782 141.595 70.0653C144.953 78.5287 147.373 86.9675 147.397 87.0518L145.075 87.723C145.051 87.6397 142.659 79.3029 139.345 70.9512C133.492 56.2051 129.902 54.1988 128.631 54.0209C128.426 53.9987 128.22 54.0234 128.027 54.0932C127.834 54.163 127.659 54.276 127.515 54.4238C122.826 58.3527 120.816 81.7902 120.438 90.4898Z" fill="black"/>
<path d="M99.1065 74.7388L96.6895 135.713L176.436 127.071L166.578 68.2021L99.1065 74.7388Z" fill="#FFBA49"/>
<path d="M166.578 68.2021L160.712 68.7703L168.519 120.393L96.9688 128.675L96.6895 135.713L176.436 127.071L166.578 68.2021Z" fill="#FFA113"/>
<path d="M209.66 173.05L206.344 172.68C206.372 172.417 209.126 146.333 200.195 136.579C199.145 135.393 197.842 134.461 196.384 133.853C194.925 133.245 193.349 132.977 191.773 133.07C172.318 133.626 163.171 167.214 163.081 167.553L159.857 166.686C161.654 160.414 164.15 154.366 167.297 148.658C174.075 136.527 182.505 129.976 191.678 129.714C193.731 129.608 195.783 129.966 197.681 130.76C199.58 131.555 201.278 132.767 202.651 134.307C212.609 145.186 209.785 171.917 209.66 173.05Z" fill="#FFBA49"/>
<path d="M150.482 149.128L220.877 157.527L219.785 269.828L125.816 258.568L150.482 149.128Z" fill="#DB3022"/>
<path d="M220.877 157.527L213.905 156.695L210.509 260.603L127.14 252.695L125.816 258.568L219.785 269.827L220.877 157.527Z" fill="#D10505"/>
<path d="M238.518 193.217C241.724 193.892 244.778 191.314 245.34 187.453C245.938 188.48 246.536 189.508 247.134 190.537C246.573 194.398 243.516 196.977 240.314 196.301C239.716 195.272 239.117 194.244 238.518 193.217Z" fill="#FFBA49"/>
<path d="M143.842 275.808C147.048 276.484 150.102 273.905 150.664 270.044C151.262 271.071 151.86 272.099 152.458 273.128C151.897 276.988 148.841 279.569 145.638 278.893C145.04 277.863 144.441 276.835 143.842 275.808Z" fill="#9B9B9B"/>
<path d="M245.678 128.587C247.022 132.155 250.513 133.741 253.478 132.122C253.111 133.297 252.743 134.473 252.374 135.648C249.409 137.264 245.919 135.681 244.576 132.111C244.946 130.938 245.313 129.763 245.678 128.587Z" fill="#FF5C00"/>
<path d="M224.932 103.243C225.473 99.3776 223.311 95.7176 220.102 95.0664C220.95 94.338 221.8 93.6098 222.65 92.8818C225.858 93.533 228.021 97.1945 227.481 101.058C226.632 101.787 225.783 102.515 224.932 103.243Z" fill="#021193"/>
<path d="M32.2819 87.6429C32.8229 83.7775 30.661 80.1173 27.4512 79.4662C28.2999 78.7378 29.1495 78.0096 30 77.2817C33.2073 77.9327 35.3705 81.5942 34.8307 85.4583C33.9819 86.1867 33.1323 86.9149 32.2819 87.6429Z" fill="#FF5C00"/>
<path d="M97.9302 224.608C98.4714 220.742 96.3093 217.082 93.0996 216.431C93.9484 215.702 94.7979 214.974 95.6483 214.246C98.8556 214.897 101.019 218.559 100.479 222.423C99.6302 223.151 98.7806 223.879 97.9302 224.608Z" fill="#FF5C00"/>
<path d="M266.312 79.7564C269.498 80.5645 272.621 78.1107 273.292 74.2734C273.861 75.3247 274.431 76.3769 275 77.4298C274.331 81.2632 271.205 83.7186 268.022 82.9128C267.452 81.8615 266.882 80.8094 266.312 79.7564Z" fill="#FFBA49"/>
<path d="M11.5838 127.241C10.4423 123.57 7.0479 121.708 4 123.085C4.43115 121.943 4.86293 120.801 5.29535 119.656C8.34072 118.281 11.737 120.141 12.8792 123.811C12.448 124.954 12.0162 126.097 11.5838 127.241Z" fill="#FFBA49"/>
<path d="M90.6861 171.958C90.911 175.867 93.7254 178.817 96.9709 178.545C96.2864 179.494 95.6008 180.439 94.9176 181.388C91.6708 181.658 88.8576 178.707 88.6328 174.797C89.3173 173.852 90.0017 172.906 90.6861 171.958Z" fill="#DB3022"/>
<path d="M67.748 100.929C70.9714 100.39 73.2212 96.8053 72.7727 92.9229C73.6054 93.681 74.4368 94.4382 75.2671 95.1945C75.7143 99.0785 73.4658 102.661 70.2425 103.202C69.4122 102.444 68.5807 101.686 67.748 100.929Z" fill="#021193"/>
<path d="M199.187 53.3186C195.007 53.4577 198.012 60.862 193.831 61.0042C193.033 60.1968 192.235 59.3895 191.436 58.5822C195.616 58.4423 192.612 51.038 196.791 50.896C197.591 51.7033 198.389 52.5109 199.187 53.3186Z" fill="#FF5C00"/>
<path d="M206.784 247.927C202.716 246.766 204.034 254.853 199.964 253.694C199.365 252.665 198.766 251.637 198.168 250.609C202.238 251.77 200.918 243.683 204.989 244.844C205.587 245.872 206.185 246.9 206.784 247.927Z" fill="#FFBA49"/>
<path d="M85.7964 258.455C82.9229 262.116 89.3941 264.797 86.5205 268.455C85.4827 268.562 84.4437 268.674 83.4059 268.779C86.2796 265.121 79.8082 262.443 82.6819 258.782C83.7209 258.675 84.7591 258.566 85.7964 258.455Z" fill="#021193"/>
<path d="M178.879 5.7042C174.787 6.75106 178.848 13.3853 174.759 14.4299C173.855 13.8079 172.945 13.1881 172.041 12.5646C176.132 11.5206 172.068 4.88871 176.16 3.8418C177.067 4.46534 177.973 5.08614 178.879 5.7042Z" fill="#DB3022"/>
<path d="M47.5731 27.5122C49.5857 31.9289 53.6879 25.332 55.6974 29.7474C55.464 30.9698 55.2335 32.1968 54.9988 33.42C52.9893 29.0033 48.8895 35.6023 46.877 31.1856C47.111 29.9594 47.3431 28.7349 47.5731 27.5122Z" fill="#9B9B9B"/>
<path d="M12.8789 201.172C13.4187 201.074 13.9071 200.788 14.2588 200.364C14.6105 199.941 14.8031 199.406 14.8031 198.854C14.8031 198.302 14.6105 197.768 14.2588 197.344C13.9071 196.921 13.4187 196.635 12.8789 196.537" fill="black"/>
<path d="M231.285 22.092C229.526 22.092 228.096 20.3687 228.096 18.2503C228.096 16.1319 229.526 14.4087 231.285 14.4087C233.044 14.4087 234.474 16.132 234.474 18.2503C234.474 20.3687 233.044 22.092 231.285 22.092ZM231.285 15.9326C230.726 15.9881 230.212 16.2621 229.852 16.6956C229.492 17.129 229.316 17.6873 229.361 18.2503C229.31 18.5338 229.321 18.825 229.394 19.1035C229.468 19.382 229.601 19.6409 229.784 19.862C229.968 20.0831 230.197 20.2609 230.457 20.3829C230.716 20.5049 230.999 20.5682 231.285 20.5682C231.571 20.5682 231.854 20.5049 232.113 20.3829C232.373 20.2609 232.602 20.0831 232.786 19.862C232.969 19.6409 233.102 19.382 233.176 19.1035C233.249 18.825 233.26 18.5338 233.209 18.2503C233.254 17.6874 233.078 17.1291 232.718 16.6956C232.358 16.2621 231.844 15.9881 231.285 15.9326Z" fill="black"/>
<path d="M45.6229 167.64C43.8643 167.64 42.4336 165.917 42.4336 163.799C42.4336 161.68 43.8643 159.957 45.6229 159.957C47.3815 159.957 48.8122 161.68 48.8122 163.799C48.8122 165.917 47.3815 167.64 45.6229 167.64ZM45.6229 161.481C45.0831 161.579 44.5947 161.865 44.243 162.289C43.8913 162.712 43.6987 163.247 43.6987 163.799C43.6987 164.351 43.8913 164.885 44.243 165.309C44.5947 165.732 45.0831 166.018 45.6229 166.116C46.1627 166.018 46.6511 165.732 47.0028 165.309C47.3545 164.885 47.5471 164.351 47.5471 163.799C47.5471 163.247 47.3545 162.712 47.0028 162.289C46.6511 161.865 46.1627 161.579 45.6229 161.481Z" fill="black"/>
</g>
<defs>
<filter id="filter0_d_1580_8976" x="0" y="0" width="279" height="287" filterUnits="userSpaceOnUse" color-interpolation-filters="sRGB">
<feFlood flood-opacity="0" result="BackgroundImageFix"/>
<feColorMatrix in="SourceAlpha" type="matrix" values="0 0 0 0 0 0 0 0 0 0 0 0 0 0 0 0 0 0 127 0" result="hardAlpha"/>
<feOffset dy="4"/>
<feGaussianBlur stdDeviation="2"/>
<feComposite in2="hardAlpha" operator="out"/>
<feColorMatrix type="matrix" values="0 0 0 0 0 0 0 0 0 0 0 0 0 0 0 0 0 0 0.25 0"/>
<feBlend mode="normal" in2="BackgroundImageFix" result="effect1_dropShadow_1580_8976"/>
<feBlend mode="normal" in="SourceGraphic" in2="effect1_dropShadow_1580_8976" result="shape"/>
</filter>
<clipPath id="clip0_1580_8976">
<rect width="271" height="279" fill="white" transform="translate(4)"/>
</clipPath>
</defs>
</svg>
