<?xml version="1.0" standalone="no"?>
<!DOCTYPE svg PUBLIC "-//W3C//DTD SVG 20010904//EN"
 "http://www.w3.org/TR/2001/REC-SVG-20010904/DTD/svg10.dtd">
<svg version="1.0" xmlns="http://www.w3.org/2000/svg"
 width="5120.000000pt" height="5120.000000pt" viewBox="0 0 5120.000000 5120.000000"
 preserveAspectRatio="xMidYMid meet">

<g transform="translate(0.000000,5120.000000) scale(0.100000,-0.100000)"
fill="#000000" stroke="none">
<path d="M25115 44794 c-49 -2 -198 -8 -330 -14 -3447 -155 -6782 -1306 -9585
-3308 -1498 -1071 -2815 -2361 -3931 -3852 -219 -292 -295 -408 -364 -552
-242 -511 -243 -1097 -3 -1608 l49 -106 -79 -139 c-297 -524 -616 -1173 -852
-1730 -707 -1672 -1145 -3474 -1284 -5285 -49 -632 -56 -1000 -56 -3035 l0
-1760 -50 -28 c-86 -48 -212 -147 -319 -251 -274 -267 -456 -608 -527 -991
-18 -93 -19 -164 -19 -985 0 -821 1 -892 19 -985 71 -384 253 -725 527 -990
118 -115 192 -173 311 -247 326 -203 726 -301 1096 -269 171 15 270 35 475 98
16 5 17 -20 17 -435 0 -242 5 -486 10 -543 44 -431 221 -860 498 -1209 202
-254 491 -486 788 -631 217 -106 458 -180 703 -216 161 -23 466 -22 626 1 506
76 958 301 1315 656 373 371 613 870 669 1392 8 66 11 1149 11 3387 0 2907 -2
3304 -15 3408 -96 727 -511 1352 -1142 1719 -254 148 -526 242 -838 290 -155
24 -470 24 -630 0 -717 -107 -1323 -516 -1691 -1141 l-29 -50 -3 780 c-3 799
7 1309 33 1718 113 1732 517 3415 1203 5007 200 465 474 1018 700 1415 l40 70
198 6 c228 7 347 27 537 90 258 84 471 209 690 403 87 77 170 176 342 406 269
360 567 724 864 1055 187 208 828 847 1051 1047 1480 1329 3129 2293 4980
2909 1234 411 2427 634 3790 710 463 26 1266 14 1785 -26 2457 -193 4788
-1004 6805 -2370 545 -369 1048 -763 1560 -1223 219 -197 862 -836 1046 -1042
294 -327 601 -702 869 -1060 172 -230 255 -329 342 -406 219 -194 432 -319
690 -403 190 -63 309 -83 537 -90 l199 -6 64 -115 c884 -1577 1488 -3362 1752
-5180 129 -884 164 -1539 159 -2915 l-3 -780 -29 50 c-323 549 -839 939 -1441
1090 -209 53 -343 69 -570 68 -275 0 -499 -37 -739 -120 -842 -292 -1434
-1020 -1551 -1906 -13 -104 -15 -501 -15 -3408 0 -2238 3 -3321 11 -3387 56
-522 296 -1021 669 -1392 296 -295 666 -505 1065 -605 206 -52 343 -69 565
-68 212 0 351 15 529 58 57 14 106 23 109 21 12 -13 -406 -651 -623 -951 -798
-1100 -1741 -2074 -2810 -2902 -1350 -1045 -2911 -1849 -4545 -2343 -903 -272
-1855 -459 -2787 -545 l-72 -7 -49 99 c-171 339 -480 573 -861 650 -79 17
-185 18 -1361 18 -1195 0 -1280 -1 -1360 -18 -471 -101 -818 -429 -948 -897
l-27 -95 0 -690 0 -690 27 -97 c98 -347 317 -622 618 -777 114 -59 206 -92
320 -117 80 -18 153 -19 1370 -19 1055 0 1298 2 1355 14 382 76 699 318 872
666 22 44 46 97 52 117 8 24 19 38 29 38 9 0 112 9 227 20 3035 289 5906 1433
8305 3309 958 749 1848 1628 2609 2576 1364 1699 2341 3611 2936 5745 14 52
20 59 97 115 45 32 131 106 191 164 280 271 461 609 533 996 18 93 19 164 19
985 0 821 -1 892 -19 985 -72 386 -254 726 -532 995 -105 101 -233 201 -321
251 l-43 24 0 1760 c0 2036 -7 2403 -56 3035 -139 1811 -577 3613 -1284 5285
-209 493 -521 1134 -775 1590 l-155 280 49 105 c239 513 238 1097 -4 1608 -69
144 -145 260 -364 552 -733 980 -1559 1880 -2456 2675 -2514 2231 -5604 3706
-8920 4259 -691 115 -1335 184 -2110 226 -188 10 -1156 21 -1330 14z"/>
</g>
</svg>
