<svg width="80" height="80" viewBox="0 0 80 80" fill="none" xmlns="http://www.w3.org/2000/svg">
<path d="M6.85352 45.8677C6.85352 51.2667 9.66602 54.0541 15.1152 54.0541H16.3457V36.3253C16.3457 28.8923 20.8156 24.4475 28.2988 24.4475H31.7893C32.392 24.4475 32.5427 24.3722 32.9696 23.9453L34.8027 22.2377C36.887 20.2539 39.1219 19.3248 42.0098 19.3248H51.1504C54.0885 19.3248 56.3987 20.2539 58.4328 22.2879L59.6632 23.4933C59.839 23.6691 60.0399 23.8951 60.1906 23.9704V20.2539C60.1906 14.88 57.353 12.0675 51.9289 12.0675H15.1152C9.66602 12.0675 6.85352 14.88 6.85352 20.2539V45.8677ZM28.2988 66.0324H64.8613C70.3106 66.0324 73.1482 63.2199 73.1482 57.846V36.3253C73.1482 30.9263 70.3106 28.1389 64.8613 28.1389H61.3959C59.5126 28.1389 58.8848 27.9129 57.7799 26.7829L55.8714 24.8996C54.5154 23.5686 53.1844 23.0162 51.1504 23.0162H42.0098C40.0008 23.0162 38.695 23.5937 37.3139 24.8996L35.305 26.7829C34.1749 27.8376 33.6727 28.1389 31.7893 28.1389H28.2988C22.8496 28.1389 20.0371 30.9263 20.0371 36.3253V57.846C20.0371 63.2199 22.8496 66.0324 28.2988 66.0324ZM46.4796 58.072C39.8251 58.072 34.4512 52.6981 34.4512 46.0184C34.4512 39.3889 39.8251 33.99 46.4796 33.99C53.1091 33.99 58.5081 39.3889 58.5081 46.0184C58.5081 52.6981 53.1091 58.072 46.4796 58.072ZM61.8731 40.3432C60.2659 40.3432 58.9852 39.0374 58.9852 37.4554C58.9852 35.8482 60.2659 34.5424 61.8731 34.5424C63.4551 34.5424 64.786 35.8482 64.786 37.4554C64.786 39.0374 63.4551 40.3432 61.8731 40.3432ZM46.4796 53.6523C50.6733 53.6523 54.0885 50.2372 54.0885 46.0184C54.0885 41.8248 50.6733 38.4096 46.4796 38.4096C42.286 38.4096 38.8708 41.8248 38.8708 46.0184C38.8708 50.2372 42.286 53.6523 46.4796 53.6523Z" fill="black"/>
</svg>
