<svg width="28" height="28" viewBox="0 0 28 28" fill="none" xmlns="http://www.w3.org/2000/svg">
<path d="M6.02051 21.8809H21.9639C23.8623 21.8809 24.8643 20.8965 24.8643 19.0156V9.78711C24.8643 7.90625 23.8623 6.92188 21.9639 6.92188H19.626C18.9404 6.92188 18.7207 6.80762 18.29 6.35938L17.5957 5.6123C17.1387 5.12891 16.6729 4.8916 15.7764 4.8916H12.1641C11.2676 4.8916 10.8018 5.12891 10.3447 5.6123L9.65039 6.35938C9.22852 6.79883 9 6.92188 8.31445 6.92188H6.02051C4.12207 6.92188 3.12891 7.90625 3.12891 9.78711V19.0156C3.12891 20.8965 4.12207 21.8809 6.02051 21.8809ZM13.9922 19.1211C11.3643 19.1211 9.25488 17.0117 9.25488 14.375C9.25488 11.7295 11.3643 9.62012 13.9922 9.62012C16.6289 9.62012 18.7383 11.7295 18.7383 14.375C18.7383 17.0117 16.6289 19.1211 13.9922 19.1211ZM19.3008 11.1406C19.3008 10.5166 19.8369 9.97168 20.4785 9.97168C21.1113 9.97168 21.6475 10.5166 21.6475 11.1406C21.6475 11.791 21.1113 12.3008 20.4785 12.3096C19.8369 12.3096 19.3008 11.7998 19.3008 11.1406ZM13.9922 17.5303C15.7412 17.5303 17.1475 16.124 17.1475 14.375C17.1475 12.6172 15.7412 11.2109 13.9922 11.2109C12.252 11.2109 10.8457 12.6172 10.8457 14.375C10.8457 16.124 12.2607 17.5303 13.9922 17.5303Z" fill="black"/>
</svg>
