<svg width="28" height="28" viewBox="0 0 28 28" fill="none" xmlns="http://www.w3.org/2000/svg">
<path d="M13.9902 22.7422C18.9736 22.7422 23.0869 18.6289 23.0869 13.6543C23.0869 8.67969 18.9648 4.56641 13.9814 4.56641C9.00684 4.56641 4.90234 8.67969 4.90234 13.6543C4.90234 18.6289 9.01562 22.7422 13.9902 22.7422ZM9.56055 14.7617C9.16504 14.7617 8.85742 14.4541 8.85742 14.0586C8.85742 13.6631 9.16504 13.3555 9.56055 13.3555H13.2871V8.31055C13.2871 7.91504 13.5947 7.60742 13.9814 7.60742C14.3857 7.60742 14.6934 7.91504 14.6934 8.31055V14.0586C14.6934 14.4541 14.3857 14.7617 13.9814 14.7617H9.56055Z" fill="black"/>
</svg>
