<svg width="28" height="28" viewBox="0 0 28 28" fill="none" xmlns="http://www.w3.org/2000/svg">
<path d="M9.31445 23.1816H18.6836C20.5732 23.1816 21.5488 22.1885 21.5488 20.29V12.4238H14.957C13.8584 12.4238 13.3311 11.8965 13.3311 10.7979V4.13574H9.31445C7.43359 4.13574 6.44922 5.12891 6.44922 7.03613V20.29C6.44922 22.1885 7.43359 23.1816 9.31445 23.1816ZM15.124 11.1406H21.4609C21.4082 10.7363 21.1182 10.3584 20.6611 9.89258L15.8535 5.02344C15.4141 4.5752 15.0186 4.27637 14.6143 4.22363V10.6309C14.623 10.9736 14.79 11.1406 15.124 11.1406ZM10.5889 16.3174C10.2109 16.3174 9.93848 16.0449 9.93848 15.6934C9.93848 15.3418 10.2109 15.0693 10.5889 15.0693H17.4355C17.7959 15.0693 18.0771 15.3418 18.0771 15.6934C18.0771 16.0449 17.7959 16.3174 17.4355 16.3174H10.5889ZM10.5889 19.6133C10.2109 19.6133 9.93848 19.3408 9.93848 18.9893C9.93848 18.6377 10.2109 18.3652 10.5889 18.3652H17.4355C17.7959 18.3652 18.0771 18.6377 18.0771 18.9893C18.0771 19.3408 17.7959 19.6133 17.4355 19.6133H10.5889Z" fill="black"/>
</svg>
