<?xml version="1.0" standalone="no"?>
<!DOCTYPE svg PUBLIC "-//W3C//DTD SVG 20010904//EN"
 "http://www.w3.org/TR/2001/REC-SVG-20010904/DTD/svg10.dtd">
<svg version="1.0" xmlns="http://www.w3.org/2000/svg"
 width="512.000000pt" height="512.000000pt" viewBox="0 0 512.000000 512.000000"
 preserveAspectRatio="xMidYMid meet">

<g transform="translate(0.000000,512.000000) scale(0.100000,-0.100000)"
fill="#000000" stroke="none">
<path d="M2370 5113 c-379 -36 -661 -116 -980 -278 -378 -192 -718 -497 -965
-865 -162 -242 -312 -598 -369 -880 -43 -212 -51 -295 -51 -530 0 -312 34
-526 126 -805 53 -159 173 -417 255 -545 205 -322 503 -620 824 -824 100 -64
351 -186 475 -232 129 -47 369 -107 515 -129 485 -70 1003 9 1448 221 286 136
489 280 718 508 217 218 355 408 488 677 309 621 350 1331 115 1993 -47 133
-163 373 -235 486 -211 333 -537 653 -856 843 -413 246 -871 371 -1338 365
-74 0 -151 -3 -170 -5z m406 -244 c677 -66 1280 -416 1681 -977 312 -437 465
-1010 412 -1548 -51 -529 -273 -1010 -642 -1391 -173 -179 -331 -301 -537
-417 -696 -390 -1537 -394 -2240 -10 -207 113 -343 215 -526 398 -229 230
-378 447 -497 728 -249 582 -247 1241 4 1825 121 283 287 521 518 745 329 320
718 525 1161 612 229 45 448 57 666 35z"/>
<path d="M1789 4035 c-46 -25 -59 -70 -59 -199 l0 -115 -301 -3 -301 -3 -29
-33 c-56 -63 -32 -162 46 -192 15 -6 146 -10 306 -10 l279 0 0 -90 c0 -96 13
-142 48 -173 29 -27 92 -33 130 -13 50 26 62 61 62 176 l0 100 989 0 c629 0
999 4 1016 10 78 30 102 129 46 192 l-29 33 -1011 3 -1011 2 0 131 0 131 -34
34 c-28 28 -41 34 -77 34 -24 -1 -56 -7 -70 -15z"/>
<path d="M3004 2956 l-34 -34 0 -121 0 -121 -905 0 c-979 0 -941 2 -979 -52
-21 -29 -21 -107 0 -136 38 -54 0 -52 979 -52 l905 0 0 -121 0 -121 34 -34
c29 -29 41 -34 79 -34 53 0 93 27 113 76 9 21 14 71 14 134 l0 100 375 0 c404
0 414 1 449 52 9 12 16 43 16 68 0 25 -7 56 -16 68 -35 51 -45 52 -449 52
l-375 0 0 100 c0 63 -5 113 -14 134 -20 49 -60 76 -113 76 -38 0 -50 -5 -79
-34z"/>
<path d="M1938 1912 c-46 -28 -58 -68 -58 -186 l0 -106 -355 0 c-385 0 -405
-2 -438 -53 -10 -15 -17 -46 -17 -71 0 -36 6 -52 29 -78 l29 -33 376 -3 376
-3 0 -110 c0 -154 27 -199 120 -199 93 0 120 45 120 199 l0 111 936 2 936 3
29 33 c54 60 34 158 -38 188 -26 12 -197 14 -948 14 l-915 0 0 106 c0 120 -13
159 -59 187 -37 22 -88 21 -123 -1z"/>
</g>
</svg>
