<svg width="28" height="28" viewBox="0 0 28 28" fill="none" xmlns="http://www.w3.org/2000/svg">
<path d="M23.1309 14.1377C25.5918 14.1377 27.6572 12.0811 27.6572 9.61133C27.6572 7.12402 25.6094 5.08496 23.1309 5.08496C20.6523 5.08496 18.6045 7.13281 18.6045 9.61133C18.6045 12.0986 20.6523 14.1377 23.1309 14.1377ZM3.91797 10.6484H17.5322C17.4619 10.3408 17.418 10.0244 17.418 9.69043C17.418 8.77637 17.6289 7.81836 18.042 6.99219H13.0322C12.3994 6.99219 12.0215 6.85156 11.5293 6.44727L11.0371 6.04297C10.4131 5.5332 9.95605 5.36621 9.0332 5.36621H6.5459C4.89355 5.36621 3.91797 6.33301 3.91797 8.1875V10.6484ZM23.1309 9.80469C22.3398 9.80469 21.7246 9.1543 21.7246 8.25781C21.7246 7.44922 22.3398 6.77246 23.1309 6.77246C23.9131 6.77246 24.5283 7.44922 24.5283 8.25781C24.5283 9.1543 23.9219 9.80469 23.1309 9.80469ZM23.1309 12.9863C21.8564 12.9863 20.8545 12.3184 20.5996 11.7207V11.6768C20.8809 11.1318 21.8125 10.5254 23.1309 10.5254C24.4492 10.5254 25.3809 11.1318 25.6621 11.6855V11.7207C25.3896 12.3184 24.4053 12.9863 23.1309 12.9863ZM6.80957 21.7666H21.3906C23.0869 21.7666 24.0713 20.7822 24.0713 18.9014V15.3154C23.79 15.3682 23.5176 15.3857 23.2275 15.3857C20.8896 15.3857 18.8418 14.0322 17.9453 11.9141H3.91797V18.9014C3.91797 20.791 4.91113 21.7666 6.80957 21.7666Z" fill="black"/>
</svg>
