<svg width="28" height="28" viewBox="0 0 28 28" fill="none" xmlns="http://www.w3.org/2000/svg">
<path d="M9.73828 22.1182H18.2637C19.4414 22.1182 20.0215 21.5381 20.0215 20.2549V13.6719C20.0215 12.5117 19.5469 11.9229 18.5625 11.8262V9.65527C18.5625 6.31543 16.3389 4.70703 14.001 4.70703C11.6631 4.70703 9.43945 6.31543 9.43945 9.65527V11.8525C8.52539 11.9932 7.98047 12.5732 7.98047 13.6719V20.2549C7.98047 21.5381 8.56055 22.1182 9.73828 22.1182ZM11.127 9.49707C11.127 7.44922 12.4277 6.32422 14.001 6.32422C15.5654 6.32422 16.875 7.44922 16.875 9.49707V11.8086L11.127 11.8174V9.49707Z" fill="black"/>
</svg>
