<svg width="28" height="28" viewBox="0 0 28 28" fill="none" xmlns="http://www.w3.org/2000/svg">
<path d="M13.9902 22.7422C18.9736 22.7422 23.0869 18.6289 23.0869 13.6543C23.0869 8.67969 18.9648 4.56641 13.9814 4.56641C9.00684 4.56641 4.90234 8.67969 4.90234 13.6543C4.90234 18.6289 9.01562 22.7422 13.9902 22.7422ZM13.9814 18.7871C13.7441 18.7871 13.5684 18.6113 13.5684 18.3652V17.7412C12.2588 17.6357 11.292 16.9502 11.0283 15.9834C10.9932 15.8691 10.9756 15.7637 10.9756 15.6582C10.9756 15.2891 11.2305 15.0342 11.6084 15.0342C11.9248 15.0342 12.1357 15.2012 12.2676 15.5264C12.4082 16.0625 12.8389 16.458 13.5684 16.5635V14.1729L13.4102 14.1377C11.8896 13.7861 11.0986 13.083 11.0986 11.8965C11.0986 10.6133 12.127 9.73438 13.5684 9.60254V8.9873C13.5684 8.73242 13.7441 8.56543 13.9814 8.56543C14.2188 8.56543 14.4033 8.74121 14.4033 8.9873V9.60254C15.6338 9.72559 16.5479 10.4023 16.7939 11.3428C16.8203 11.4482 16.8467 11.5537 16.8467 11.6592C16.8467 12.0107 16.5918 12.2656 16.2227 12.2656C15.8975 12.2656 15.6865 12.0811 15.5547 11.7822C15.3789 11.2461 14.9834 10.9033 14.4033 10.7979V13.0566L14.6055 13.1006C16.1963 13.3994 16.9961 14.1289 16.9961 15.377C16.9961 16.7656 15.8887 17.6182 14.4033 17.75V18.3652C14.4033 18.6113 14.2188 18.7871 13.9814 18.7871ZM13.5684 12.8457V10.7891C12.874 10.9033 12.4521 11.3164 12.4521 11.8086C12.4521 12.3008 12.7773 12.6172 13.5068 12.8281L13.5684 12.8457ZM14.4033 14.375V16.5635C15.2383 16.4668 15.6514 16.0449 15.6514 15.4736C15.6514 14.9639 15.3613 14.6299 14.5703 14.4189L14.4033 14.375Z" fill="black"/>
</svg>
