<?xml version="1.0" standalone="no"?>
<!DOCTYPE svg PUBLIC "-//W3C//DTD SVG 20010904//EN"
 "http://www.w3.org/TR/2001/REC-SVG-20010904/DTD/svg10.dtd">
<svg version="1.0" xmlns="http://www.w3.org/2000/svg"
 width="1920.000000pt" height="1920.000000pt" viewBox="0 0 1920.000000 1920.000000"
 preserveAspectRatio="xMidYMid meet">

<g transform="translate(0.000000,1920.000000) scale(0.100000,-0.100000)"
fill="#000000" stroke="none">
<path d="M9460 14294 c-160 -25 -270 -58 -395 -121 -122 -61 -204 -121 -305
-222 -221 -223 -340 -511 -340 -826 0 -557 386 -1033 933 -1151 102 -22 285
-29 390 -15 386 52 725 290 898 634 360 712 -75 1564 -864 1692 -83 14 -253
18 -317 9z"/>
<path d="M9477 10769 c-263 -26 -496 -133 -690 -318 -581 -552 -454 -1501 253
-1888 318 -174 728 -182 1064 -20 353 170 593 497 652 887 63 423 -113 850
-459 1111 -229 172 -532 257 -820 228z"/>
<path d="M9427 7239 c-509 -74 -910 -469 -992 -974 -61 -376 59 -750 330
-1020 217 -217 474 -329 785 -342 595 -24 1116 406 1205 994 108 717 -450
1361 -1173 1352 -53 -1 -123 -5 -155 -10z"/>
</g>
</svg>
