<?xml version="1.0" standalone="no"?>
<!DOCTYPE svg PUBLIC "-//W3C//DTD SVG 20010904//EN"
 "http://www.w3.org/TR/2001/REC-SVG-20010904/DTD/svg10.dtd">
<svg version="1.0" xmlns="http://www.w3.org/2000/svg"
 width="1920.000000pt" height="1920.000000pt" viewBox="0 0 1920.000000 1920.000000"
 preserveAspectRatio="xMidYMid meet">

<g transform="translate(0.000000,1920.000000) scale(0.100000,-0.100000)"
fill="#000000" stroke="none">
<path d="M7925 15755 c-1179 -100 -2241 -590 -3065 -1415 -728 -727 -1205
-1661 -1369 -2675 -73 -450 -80 -963 -21 -1431 66 -519 234 -1071 468 -1539
550 -1101 1490 -1955 2632 -2390 1040 -397 2208 -426 3270 -83 1158 374 2139
1176 2744 2242 723 1274 832 2852 291 4216 -257 648 -643 1227 -1141 1710
-927 898 -2136 1385 -3429 1379 -126 -1 -297 -7 -380 -14z m585 -975 c548 -32
1020 -151 1487 -375 520 -250 939 -574 1319 -1020 483 -568 798 -1297 891
-2065 21 -181 24 -655 5 -835 -80 -735 -351 -1414 -791 -1985 -196 -255 -469
-527 -721 -721 -608 -467 -1328 -741 -2100 -800 -188 -14 -540 -7 -730 16
-270 32 -609 111 -855 200 -695 251 -1289 677 -1749 1254 -591 740 -892 1672
-845 2609 19 386 76 693 194 1047 201 604 529 1126 986 1570 688 668 1551
1048 2509 1104 196 12 208 12 400 1z"/>
<path d="M12668 7508 c-167 -209 -226 -281 -332 -398 -155 -171 -386 -379
-626 -564 l-63 -48 1439 -1440 c791 -792 1467 -1459 1501 -1484 238 -172 553
-191 810 -49 90 51 227 188 278 278 108 195 125 454 43 652 -60 143 -59 142
-1571 1653 l-1444 1444 -35 -44z"/>
</g>
</svg>
