<svg xmlns="http://www.w3.org/2000/svg"  viewBox="0 0 24 24" width="24px" height="24px"><path d="M 18 2 C 16.729167 2 15.681074 2.5035667 15.001953 3.2675781 C 14.322832 4.0315896 14 5.0208334 14 6 C 14 6.8072466 14.278744 7.5921036 14.736328 8.28125 L 12.615234 11.25 L 9.8730469 11.25 C 9.747447 10.532282 9.5012237 9.8336523 8.9980469 9.2675781 C 8.3189259 8.5035667 7.2708329 8 6 8 C 4.7291671 8 3.6810741 8.5035667 3.0019531 9.2675781 C 2.3228321 10.03159 2 11.020833 2 12 C 2 12.979167 2.3228321 13.96841 3.0019531 14.732422 C 3.6810741 15.496433 4.7291671 16 6 16 C 7.2708329 16 8.3189259 15.496433 8.9980469 14.732422 C 9.5012237 14.166348 9.747447 13.467718 9.8730469 12.75 L 12.615234 12.75 L 14.736328 15.71875 C 14.278744 16.407896 14 17.192753 14 18 C 14 18.979167 14.322832 19.96841 15.001953 20.732422 C 15.681074 21.496433 16.729167 22 18 22 C 19.270833 22 20.318926 21.496433 20.998047 20.732422 C 21.677168 19.96841 22 18.979167 22 18 C 22 17.020833 21.677168 16.03159 20.998047 15.267578 C 20.318926 14.503567 19.270833 14 18 14 C 17.140954 14 16.440403 14.28684 15.830078 14.671875 L 13.921875 12 L 15.830078 9.328125 C 16.440403 9.7131596 17.140954 10 18 10 C 19.270833 10 20.318926 9.4964333 20.998047 8.7324219 C 21.677168 7.9684104 22 6.9791666 22 6 C 22 5.0208334 21.677168 4.0315896 20.998047 3.2675781 C 20.318926 2.5035667 19.270833 2 18 2 z M 18 3.5 C 18.895833 3.5 19.472741 3.8089333 19.876953 4.2636719 C 20.281165 4.7184104 20.5 5.3541666 20.5 6 C 20.5 6.6458334 20.281165 7.2815896 19.876953 7.7363281 C 19.472741 8.1910667 18.895833 8.5 18 8.5 C 17.104167 8.5 16.527259 8.1910667 16.123047 7.7363281 C 15.718835 7.2815896 15.5 6.6458334 15.5 6 C 15.5 5.3541666 15.718835 4.7184104 16.123047 4.2636719 C 16.527259 3.8089333 17.104167 3.5 18 3.5 z M 6 9.5 C 6.8958328 9.5 7.4727412 9.8089332 7.8769531 10.263672 C 8.281165 10.71841 8.5 11.354167 8.5 12 C 8.5 12.645833 8.281165 13.28159 7.8769531 13.736328 C 7.4727412 14.191067 6.8958328 14.5 6 14.5 C 5.1041672 14.5 4.5272588 14.191067 4.1230469 13.736328 C 3.718835 13.28159 3.5 12.645833 3.5 12 C 3.5 11.354167 3.718835 10.71841 4.1230469 10.263672 C 4.5272588 9.8089332 5.1041672 9.5 6 9.5 z M 18 15.5 C 18.895833 15.5 19.472741 15.808933 19.876953 16.263672 C 20.281165 16.71841 20.5 17.354167 20.5 18 C 20.5 18.645833 20.281165 19.28159 19.876953 19.736328 C 19.472741 20.191067 18.895833 20.5 18 20.5 C 17.104167 20.5 16.527259 20.191067 16.123047 19.736328 C 15.718835 19.28159 15.5 18.645833 15.5 18 C 15.5 17.354167 15.718835 16.71841 16.123047 16.263672 C 16.527259 15.808933 17.104167 15.5 18 15.5 z"/></svg>