<svg width="28" height="28" viewBox="0 0 28 28" fill="none" xmlns="http://www.w3.org/2000/svg">
<path d="M13.9902 22.7422C18.9736 22.7422 23.0869 18.6289 23.0869 13.6543C23.0869 8.67969 18.9648 4.56641 13.9814 4.56641C9.00684 4.56641 4.90234 8.67969 4.90234 13.6543C4.90234 18.6289 9.01562 22.7422 13.9902 22.7422ZM13.9902 20.9316C9.95605 20.9316 6.73047 17.6885 6.73047 13.6543C6.73047 9.62012 9.95605 6.38574 13.9814 6.38574C18.0156 6.38574 21.2588 9.62012 21.2676 13.6543C21.2764 17.6885 18.0244 20.9316 13.9902 20.9316ZM11.4326 17.6797C11.7754 17.6797 11.96 17.5654 12.2236 17.1787L13.9375 14.709H13.9814L15.6865 17.1787C15.9414 17.5566 16.126 17.6797 16.4688 17.6797C16.9346 17.6797 17.2686 17.3721 17.2686 16.9414C17.2686 16.7305 17.207 16.5635 17.0576 16.3701L15.0098 13.5928L17.0752 10.8066C17.2246 10.6045 17.2861 10.4375 17.2861 10.2354C17.2861 9.82227 16.9521 9.51465 16.5039 9.51465C16.1699 9.51465 15.9678 9.6377 15.7393 9.99805L14.0869 12.4854H14.0342L12.3379 9.98926C12.0918 9.62891 11.8984 9.51465 11.5469 9.51465C11.0986 9.51465 10.7471 9.83984 10.7471 10.2617C10.7471 10.4902 10.8086 10.6484 10.9756 10.8682L12.9443 13.5576L10.8701 16.4053C10.7295 16.6074 10.668 16.7568 10.668 16.9678C10.668 17.3721 10.9932 17.6797 11.4326 17.6797Z" fill="black"/>
</svg>
